<svg width="131" height="19" viewBox="0 0 131 19" fill="none" xmlns="http://www.w3.org/2000/svg">
<g clip-path="url(#clip0_220_2321)">
<path d="M28.1999 18.2081H26.1495V17.1098C25.504 17.943 24.5548 18.4732 23.2259 18.4732C20.606 18.4732 18.5557 16.428 18.5557 13.5875C18.5557 10.7469 20.606 8.70166 23.2259 8.70166C24.5548 8.70166 25.504 9.2319 26.1495 10.0651V8.92891H28.1999V18.2081ZM20.6819 13.5496C20.6819 15.1782 21.7451 16.5417 23.4917 16.5417C25.1623 16.5417 26.3014 15.2539 26.3014 13.5496C26.3014 11.8452 25.1623 10.5575 23.4917 10.5575C21.7451 10.5575 20.6819 11.921 20.6819 13.5496Z" fill="#582C83"/>
<path d="M36.5913 10.7469H33.0222V14.7995C33.0222 16.0493 33.6676 16.5417 34.503 16.5417C35.1484 16.5417 35.8319 16.2766 36.3635 15.8978L37.1608 17.5264C36.4014 18.0188 35.4522 18.4354 34.3131 18.4354C32.1868 18.4354 30.9718 17.2992 30.9718 14.8374V10.7469H29.1113V8.89108H30.9718V6.08838H33.0222V8.89108H36.5913V10.7469Z" fill="#582C83"/>
<path d="M40.0459 9.98911C40.8053 8.92863 41.9444 8.62564 42.8936 8.62564C45.0959 8.62564 46.6906 10.1406 46.6906 12.3373V18.17H44.6402V13.0191C44.6402 11.4662 43.8429 10.5951 42.476 10.5951C41.1471 10.5951 40.0459 11.4662 40.0459 13.0569V18.2078H37.9956V4.19434H40.0459V9.98911Z" fill="#582C83"/>
<path d="M57.0942 13.5115C57.0942 13.7767 57.0562 14.0418 57.0562 14.269H50.1458C50.4116 15.9355 51.5886 16.6551 52.9176 16.6551C53.8668 16.6551 54.854 16.2764 55.6134 15.6704L56.6386 17.1096C55.4995 18.0943 54.2085 18.4352 52.8037 18.4352C49.9939 18.4352 48.0195 16.5036 48.0195 13.5494C48.0195 10.6331 49.918 8.66361 52.6518 8.66361C55.3096 8.62574 57.0942 10.6331 57.0942 13.5115ZM50.1838 12.754H55.0059C54.7781 11.3148 53.9427 10.4437 52.6518 10.4437C51.209 10.4437 50.3736 11.3906 50.1838 12.754Z" fill="#582C83"/>
<path d="M67.2321 12.3376V18.1702H65.1817V13.0193C65.1817 11.4665 64.3844 10.5954 63.0175 10.5954C61.6886 10.5954 60.5874 11.4665 60.5874 13.0572V18.2081H58.5371V8.89101H60.5495V10.0272C61.3089 8.92888 62.4479 8.66376 63.3972 8.66376C65.6374 8.62589 67.2321 10.1787 67.2321 12.3376Z" fill="#582C83"/>
<path d="M78.1671 18.2081H76.1168V17.1098C75.4713 17.943 74.5221 18.4732 73.1932 18.4732C70.5733 18.4732 68.5229 16.428 68.5229 13.5875C68.5229 10.7469 70.5733 8.70166 73.1932 8.70166C74.5221 8.70166 75.4713 9.2319 76.1168 10.0651V8.92891H78.1671V18.2081ZM70.6492 13.5496C70.6492 15.1782 71.7124 16.5417 73.459 16.5417C75.1296 16.5417 76.2687 15.2539 76.2687 13.5496C76.2687 11.8452 75.1296 10.5575 73.459 10.5575C71.7124 10.5575 70.6492 11.921 70.6492 13.5496Z" fill="#582C83"/>
<path d="M81.3942 10.633C82.1156 9.421 83.4066 8.89076 84.6596 8.89076C86.9757 8.89076 88.5324 10.2921 88.5324 12.5646V18.17H87.4313V12.9433C87.4313 11.0875 86.3682 9.98911 84.5077 9.98911C82.7991 9.98911 81.4322 11.239 81.4322 13.0191V18.2078H80.3311V4.19434H81.4322V10.633H81.3942Z" fill="#582C83"/>
<path d="M98.8987 13.5873C98.8987 13.7388 98.8987 13.8903 98.8607 14.0418H91.191C91.3428 16.1628 92.8616 17.3748 94.7221 17.3748C96.0131 17.3748 97.0003 16.8824 97.8356 16.087L98.4431 16.8445C97.266 18.0186 96.0131 18.3595 94.6841 18.3595C91.9883 18.3595 90.0898 16.4279 90.0898 13.6631C90.0898 10.8982 92.0642 8.92877 94.6462 8.92877C97.0382 8.8909 98.8608 10.8225 98.8987 13.5873ZM91.2289 13.0571H97.7976C97.6457 11.1634 96.3548 9.87563 94.6082 9.87563C92.7097 9.87563 91.4188 11.2012 91.2289 13.0571Z" fill="#582C83"/>
<path d="M109.188 18.2079H108.087V16.4657C107.366 17.6019 106.113 18.3594 104.442 18.3594C101.86 18.3594 99.8477 16.3521 99.8477 13.663C99.8477 10.9361 101.86 8.92871 104.442 8.92871C106.113 8.92871 107.328 9.6862 108.087 10.8224V9.08021H109.188V18.2079ZM101.025 13.6251C101.025 15.6703 102.506 17.2989 104.594 17.2989C106.682 17.2989 108.163 15.7082 108.163 13.6251C108.163 11.542 106.682 9.95132 104.594 9.95132C102.506 9.95132 101.025 11.542 101.025 13.6251Z" fill="#582C83"/>
<path d="M112.567 4.19434H111.466V18.17H112.567V4.19434Z" fill="#582C83"/>
<path d="M121.111 10.065H116.896V15.0265C116.896 16.5794 117.732 17.2611 118.947 17.2611C119.744 17.2611 120.465 16.996 120.997 16.5794L121.529 17.4126C120.883 17.9428 119.972 18.3216 118.871 18.3216C116.972 18.3216 115.795 17.2611 115.795 15.0644V10.065H113.669V9.04237H115.757V6.05029H116.858V9.04237H121.073V10.065H121.111Z" fill="#582C83"/>
<path d="M123.655 10.633C124.376 9.421 125.667 8.89076 126.92 8.89076C129.236 8.89076 130.793 10.2921 130.793 12.5646V18.17H129.692V12.9433C129.692 11.0875 128.629 9.98911 126.768 9.98911C125.06 9.98911 123.693 11.239 123.693 13.0191V18.2078H122.592V4.19434H123.693V10.633H123.655Z" fill="#582C83"/>
<path d="M7.65811 8.89072C7.65811 8.89072 5.87355 6.73189 5.83558 4.3458C5.79762 1.95972 7.50623 0.255371 7.50623 0.255371C7.50623 0.255371 9.29079 2.41421 9.32876 4.80029C9.36673 7.18638 7.65811 8.89072 7.65811 8.89072Z" fill="#B5C428"/>
<path d="M17.2264 6.16382C17.2264 6.16382 17.4162 10.9739 15.0241 14.2689C12.6321 17.564 8.53139 18.0942 8.53139 18.0942C8.53139 18.0942 8.34155 13.2842 10.7336 9.98913C13.1257 6.69406 17.2264 6.16382 17.2264 6.16382ZM10.5438 5.5957C10.5438 6.23957 11.0374 6.73193 11.6828 6.73193C12.3283 6.73193 12.8219 6.23957 12.8219 5.5957C12.8219 4.95184 12.3283 4.45947 11.6828 4.45947C11.0374 4.45947 10.5438 4.95184 10.5438 5.5957Z" fill="#7A9A01"/>
<path d="M7.58267 13.8143C7.58267 13.7764 7.58267 13.7764 7.58267 13.7764C7.58267 12.8295 7.43079 9.95108 5.91202 7.86799C4.05152 5.36828 0.900072 4.95166 0.900072 4.95166C0.900072 4.95166 0.748195 8.62547 2.57072 11.1631C3.89965 12.9431 5.83608 13.7006 6.86125 13.9658V17.9426C6.86125 18.1319 7.01313 18.2834 7.20297 18.2834C7.39282 18.2834 7.5447 18.1319 7.5447 17.9426V13.9279C7.58267 13.89 7.58267 13.8521 7.58267 13.8143Z" fill="#B5C428"/>
</g>
<defs>
<clipPath id="clip0_220_2321">
<rect width="129.855" height="18.1797" fill="white" transform="translate(0.900391 0.255371)"/>
</clipPath>
</defs>
</svg>
       