<svg width="92" height="35" viewBox="0 0 92 35" fill="none" xmlns="http://www.w3.org/2000/svg">
<g clip-path="url(#clip0_220_2338)">
<path d="M59.3203 0.137207L58.3159 4.89495H66.1431L67.1475 0.137207H59.3203Z" fill="#BA122B"/>
<path d="M78.612 11.5634C81.5905 11.5634 83.0105 12.5705 83.1836 14.3416H91.3226C91.5996 8.43786 86.8202 6.35418 79.6164 6.35418C72.1355 6.35418 66.4902 9.06297 64.1351 14.5153L65.6936 7.18765H57.7971L56.3425 13.9944C55.9962 9.27134 52.4289 6.66673 46.6451 6.66673C43.4588 6.66673 40.4456 7.81276 38.333 9.86172H38.2637L38.8178 7.18765H31.233L28.1853 21.5651H10.7645L11.5957 17.0504H27.1463L28.3238 11.5634H12.7733L13.6045 7.15292H31.233L32.4452 1.45752H6.0197L0.755371 27.2952H26.9731L25.4492 34.5534H33.2764L35.2159 25.4546H35.2852C36.2896 26.9479 38.7139 28.094 42.2119 28.094C48.1689 28.094 52.7406 25.0379 54.9571 20.7663L53.5718 27.2605H61.3644L62.9229 20.037C62.9575 25.5241 67.3214 28.094 74.9754 28.094C83.6339 28.094 88.2055 24.9684 90.6299 19.4119H82.3178C81.2095 21.7734 79.0622 22.9195 76.2223 22.9195C72.4472 22.9195 70.7501 20.8705 71.5121 17.2241C72.274 13.5776 74.9408 11.5634 78.612 11.5634ZM48.065 17.2588C47.3724 20.5927 45.0173 22.3638 41.45 22.3638C37.7788 22.3638 36.2896 20.3496 36.9476 17.2588C37.6057 14.168 39.9607 12.1538 43.6319 12.1538C47.1992 12.1538 48.7923 13.9249 48.065 17.2588Z" fill="#BA122B"/>
</g>
<defs>
<clipPath id="clip0_220_2338">
<rect width="90.5672" height="34.4155" fill="white" transform="translate(0.755371 0.137207)"/>
</clipPath>
</defs>
</svg>
