<svg width="126" height="27" viewBox="0 0 126 27" fill="none" xmlns="http://www.w3.org/2000/svg">
<g clip-path="url(#clip0_220_2301)">
<path d="M44.6768 15.3648L43.9342 17.4664H43.8723C43.7485 16.9925 43.5216 16.2714 43.1503 15.406L39.1692 5.41292H35.2705V21.3401H37.849V11.5118C37.849 10.8937 37.849 10.1931 37.8284 9.32774C37.8077 8.89505 37.7665 8.56538 37.7458 8.31813H37.8077C37.9315 8.93626 38.0759 9.38955 38.179 9.67801L42.9647 21.2988H44.7799L49.5243 9.57499C49.6274 9.30714 49.7306 8.77142 49.8337 8.31813H49.8956C49.8337 9.49257 49.7925 10.5434 49.7718 11.1821V21.2782H52.5153V5.37171H48.7611L44.6768 15.3648ZM55.1144 9.86345H57.796V21.2782H55.1144V9.86345ZM56.4759 5.04204C56.022 5.04204 55.6507 5.20688 55.3413 5.49534C55.0319 5.7838 54.8669 6.15468 54.8669 6.60797C54.8669 7.04066 55.0319 7.41154 55.3413 7.7C55.6507 7.98846 56.022 8.13269 56.4759 8.13269C56.9297 8.13269 57.3216 7.96785 57.6104 7.7C57.9198 7.41154 58.0848 7.04066 58.0848 6.60797C58.0848 6.17528 57.9198 5.8044 57.6104 5.49534C57.3422 5.20688 56.9503 5.04204 56.4759 5.04204ZM67.3054 9.76043C66.8104 9.65741 66.2947 9.5956 65.7996 9.5956C64.5826 9.5956 63.4687 9.86345 62.5404 10.3992C61.6122 10.9349 60.8696 11.6766 60.3951 12.6038C59.9001 13.5516 59.6525 14.6437 59.6525 15.9005C59.6525 16.9925 59.9001 17.9609 60.3745 18.8469C60.8489 19.7123 61.509 20.4129 62.396 20.8868C63.2418 21.3607 64.2319 21.6079 65.3458 21.6079C66.6247 21.6079 67.718 21.3401 68.5844 20.8456L68.605 20.8249V18.3524L68.5018 18.4348C68.1099 18.7233 67.6561 18.9706 67.2023 19.1148C66.7279 19.2796 66.2947 19.362 65.9234 19.362C64.8507 19.362 64.005 19.053 63.4068 18.373C62.788 17.7137 62.4785 16.8071 62.4785 15.6739C62.4785 14.4994 62.788 13.5722 63.4274 12.8923C64.0669 12.2123 64.9126 11.8621 65.944 11.8621C66.8104 11.8621 67.6974 12.1505 68.5018 12.7275L68.605 12.8099V10.1931L68.5844 10.1725C68.2337 10.0283 67.8418 9.86345 67.3054 9.76043ZM76.1547 9.67801C75.4947 9.67801 74.8758 9.88406 74.3395 10.3167C73.8857 10.6876 73.5763 11.2233 73.3081 11.8621H73.2875V9.86345H70.6059V21.2782H73.2875V15.4472C73.2875 14.4582 73.4938 13.634 73.9476 13.0365C74.4014 12.4184 74.979 12.1093 75.6803 12.1093C75.9278 12.1093 76.1754 12.1711 76.4848 12.2123C76.7736 12.2948 76.9799 12.3772 77.1243 12.4802L77.2274 12.5626V9.88406L77.1655 9.86345C76.9799 9.73983 76.6086 9.67801 76.1547 9.67801ZM83.457 9.6162C81.5799 9.6162 80.074 10.1725 79.022 11.2645C77.9494 12.3566 77.4337 13.8607 77.4337 15.7563C77.4337 17.5283 77.97 18.9706 79.0014 20.0214C80.0328 21.0516 81.4355 21.5873 83.1888 21.5873C85.0247 21.5873 86.4893 21.031 87.5413 19.9184C88.6139 18.8057 89.1296 17.3222 89.1296 15.4884C89.1296 13.6753 88.6345 12.2329 87.6238 11.1821C86.6543 10.1313 85.231 9.6162 83.457 9.6162ZM85.6023 18.3936C85.1072 19.0324 84.3233 19.3414 83.3538 19.3414C82.3843 19.3414 81.6005 19.0324 81.0435 18.3524C80.4866 17.7137 80.2184 16.7865 80.2184 15.6121C80.2184 14.3964 80.5072 13.4692 81.0435 12.8099C81.6005 12.1505 82.3637 11.8209 83.3332 11.8209C84.2821 11.8209 85.0247 12.1299 85.561 12.7687C86.0973 13.4074 86.3861 14.3346 86.3861 15.5502C86.3449 16.7865 86.118 17.7549 85.6023 18.3936ZM95.1117 14.6024C94.2659 14.2522 93.7296 13.9843 93.4821 13.7577C93.2758 13.5516 93.1727 13.2632 93.1727 12.8923C93.1727 12.5832 93.2964 12.2742 93.6058 12.0681C93.9153 11.8621 94.2659 11.759 94.7816 11.759C95.2354 11.759 95.7099 11.8415 96.1637 11.9651C96.6175 12.0887 97.0301 12.2742 97.3601 12.5214L97.4632 12.6038V10.0901L97.4013 10.0695C97.0919 9.94587 96.6794 9.82224 96.1843 9.71922C95.6892 9.6368 95.2354 9.5956 94.8641 9.5956C93.5852 9.5956 92.5332 9.90466 91.7081 10.5846C90.883 11.2233 90.491 12.0887 90.491 13.0983C90.491 13.634 90.5736 14.1079 90.7592 14.4994C90.9449 14.8909 91.213 15.2618 91.5843 15.5708C91.9556 15.8593 92.4919 16.189 93.2345 16.498C93.8534 16.7659 94.3278 16.9719 94.6166 17.1368C94.9054 17.3016 95.091 17.487 95.2354 17.6313C95.3386 17.7961 95.4005 18.0022 95.4005 18.27C95.4005 19.0324 94.8229 19.4032 93.6471 19.4032C93.1933 19.4032 92.7188 19.3208 92.1619 19.1354C91.6049 18.95 91.0893 18.6821 90.6561 18.373L90.5529 18.2906V20.9074L90.6148 20.928C91.0067 21.1134 91.4812 21.237 92.0588 21.3813C92.6363 21.4843 93.152 21.5667 93.6058 21.5667C94.9879 21.5667 96.1224 21.2576 96.9269 20.5777C97.752 19.9184 98.1852 19.0736 98.1852 17.9816C98.1852 17.2192 97.9789 16.5392 97.5251 16.0241C96.9269 15.5296 96.1843 15.0145 95.1117 14.6024ZM105.261 9.6162C103.383 9.6162 101.878 10.1725 100.826 11.2645C99.7735 12.3566 99.2372 13.8607 99.2372 15.7563C99.2372 17.5283 99.7735 18.9706 100.805 20.0214C101.836 21.0516 103.239 21.5873 104.992 21.5873C106.828 21.5873 108.293 21.031 109.345 19.9184C110.417 18.8057 110.933 17.3222 110.933 15.4884C110.933 13.6753 110.438 12.2329 109.427 11.1821C108.458 10.1313 107.035 9.6162 105.261 9.6162ZM107.385 18.3936C106.89 19.0324 106.106 19.3414 105.137 19.3414C104.147 19.3414 103.383 19.0324 102.826 18.3524C102.27 17.7137 102.001 16.7865 102.001 15.6121C102.001 14.3964 102.29 13.4692 102.826 12.8099C103.383 12.1505 104.147 11.8209 105.116 11.8209C106.044 11.8209 106.808 12.1299 107.344 12.7687C107.88 13.4074 108.169 14.3346 108.169 15.5502C108.169 16.7865 107.901 17.7549 107.385 18.3936ZM125.269 12.0681V9.86345H122.567V6.48434L122.485 6.50495L119.927 7.26731L119.865 7.28791V9.86345H115.822V8.42115C115.822 7.76181 115.987 7.2467 116.276 6.91703C116.565 6.58737 116.998 6.42253 117.534 6.42253C117.905 6.42253 118.297 6.50495 118.73 6.69039L118.834 6.7522V4.42391L118.772 4.40331C118.4 4.27968 117.905 4.19727 117.266 4.19727C116.461 4.19727 115.76 4.3827 115.121 4.69177C114.481 5.04204 114.007 5.51594 113.656 6.15468C113.305 6.7728 113.12 7.47335 113.12 8.27692V9.86345H111.243V12.0475H113.12V21.2782H115.822V12.0681H119.865V17.9403C119.865 20.351 121 21.5667 123.269 21.5667C123.64 21.5667 124.032 21.5049 124.403 21.4431C124.795 21.3607 125.084 21.2576 125.249 21.1752L125.269 21.1546V18.95L125.166 19.0324C125.001 19.1354 124.857 19.2178 124.609 19.2796C124.403 19.3414 124.217 19.362 124.073 19.362C123.537 19.362 123.165 19.2384 122.897 18.9293C122.65 18.6409 122.526 18.167 122.526 17.4664V12.0681H125.269Z" fill="#737373"/>
<path d="M0.69873 0.0556641H13.3436V12.6861H0.69873V0.0556641Z" fill="#F25022"/>
<path d="M14.6636 0.0556641H27.3084V12.6861H14.6636V0.0556641Z" fill="#7FBA00"/>
<path d="M0.69873 14.0049H13.3436V26.6353H0.69873V14.0049Z" fill="#00A4EF"/>
<path d="M14.6636 14.0049H27.3084V26.6353H14.6636V14.0049Z" fill="#FFB900"/>
</g>
<defs>
<clipPath id="clip0_220_2301">
<rect width="124.592" height="26.5796" fill="white" transform="translate(0.699219 0.0556641)"/>
</clipPath>
</defs>
</svg>
