<svg width="125" height="31" viewBox="0 0 125 31" fill="none" xmlns="http://www.w3.org/2000/svg">
<g clip-path="url(#clip0_220_2348)">
<path d="M88.6411 11.9509C86.8349 11.9509 85.5178 12.592 84.878 13.7612L84.5394 14.4023V12.2526H81.5665V25.2638H84.6899V17.5325C84.6899 15.6846 85.7059 14.6286 87.437 14.6286C89.0927 14.6286 90.0711 15.6468 90.0711 17.4571V25.2638H93.1945V16.8914C93.1945 13.7989 91.5011 11.9509 88.6411 11.9509ZM73.5135 11.9509C69.8257 11.9509 67.5678 14.2514 67.5678 17.9474V19.7576C67.5678 23.3404 69.8633 25.5278 73.5888 25.5278C76.0724 25.5278 77.8034 24.6227 78.8947 22.737L76.9756 21.6056C76.1477 22.6993 74.8682 23.3404 73.5888 23.3404C71.7072 23.3404 70.5783 22.1713 70.5783 20.2102V19.6822H79.271V17.5325C79.271 14.176 77.0132 11.9509 73.5135 11.9509ZM76.4487 17.6834H70.5783V17.3817C70.5783 15.232 71.632 14.0629 73.5135 14.0629C75.3574 14.0629 76.4487 15.232 76.4487 17.1931V17.6834ZM124.165 10.1407V7.65155H113.365V10.1407H117.165V22.7747H113.365V25.2638H124.165V22.7747H120.364V10.1407H124.165ZM42.3175 7.27441C37.5007 7.27441 34.4902 10.2915 34.4902 15.1188V17.7588C34.4902 22.6239 37.5007 25.6032 42.3175 25.6032C47.1342 25.6032 50.1447 22.5861 50.1447 17.7588V15.1188C50.1447 10.2915 47.1342 7.27441 42.3175 7.27441ZM46.9084 17.9474C46.9084 21.153 45.2527 23.001 42.3175 23.001C39.3823 23.001 37.7265 21.1907 37.7265 17.9474V14.968C37.7265 11.7623 39.4199 9.91437 42.3175 9.91437C45.215 9.91437 46.9084 11.7623 46.9084 14.968V17.9474ZM59.9664 11.9509C58.3106 11.9509 56.9183 12.6297 56.1656 13.7612L55.827 14.2891V12.2526H52.8541V29.714H55.9775V23.4158L56.3162 23.9061C57.0312 24.9621 58.3859 25.5655 60.004 25.5655C62.7134 25.5655 65.4229 23.793 65.4229 19.8708V17.6457C65.3852 14.8171 63.6918 11.9509 59.9664 11.9509ZM62.2619 19.7199C62.2619 21.8319 61.0577 23.1141 59.0632 23.1141C57.2193 23.1141 55.9399 21.7564 55.9399 19.7576V17.7965C55.9399 15.7977 57.2193 14.4023 59.0632 14.4023C61.02 14.4023 62.2242 15.6846 62.2242 17.7965L62.2619 19.7199ZM101.812 7.65155L95.5276 25.2638H98.6886L99.8928 21.4925H107.118V21.5302L108.322 25.2638H111.483L105.161 7.65155H101.812ZM100.683 19.0034L103.543 10.1029L106.365 19.0034H100.683Z" fill="black"/>
<path d="M28.3946 12.5545C29.0719 10.4803 28.8462 8.17972 27.7549 6.29404C26.0991 3.39009 22.7499 1.91926 19.476 2.5981C18.0461 0.976416 15.9387 0.0712891 13.7561 0.0712891C10.407 0.0712891 7.47178 2.22097 6.41812 5.38891C4.27315 5.84148 2.42924 7.16145 1.33794 9.08485C-0.317821 11.9888 0.0584879 15.6093 2.27871 18.0984C1.60136 20.2104 1.86477 22.4732 2.95607 24.3589C4.61183 27.2628 7.96098 28.7714 11.2349 28.0548C12.7025 29.6765 14.7722 30.6193 16.9548 30.6193C20.3039 30.6193 23.2391 28.4697 24.2928 25.3017C26.4378 24.8491 28.2817 23.5292 29.373 21.6058C31.0287 18.7018 30.6524 15.0436 28.3946 12.5545ZM16.9548 28.6205C15.6001 28.6205 14.3206 28.1679 13.3046 27.3005C13.3422 27.2628 13.4551 27.2251 13.4927 27.1874L19.5513 23.68C19.8524 23.4915 20.0405 23.1897 20.0405 22.8126V14.2516L22.5994 15.7224C22.637 15.7224 22.637 15.7602 22.637 15.7979V22.888C22.6747 26.056 20.1158 28.6205 16.9548 28.6205ZM4.68709 23.3783C4.00974 22.2092 3.78395 20.8515 4.00974 19.5315C4.04737 19.5692 4.12263 19.607 4.19789 19.6447L10.2565 23.152C10.5575 23.3406 10.9338 23.3406 11.2349 23.152L18.6482 18.8527V21.8321C18.6482 21.8698 18.6482 21.9075 18.6105 21.9075L12.4767 25.4526C9.76727 27.0365 6.26759 26.0937 4.68709 23.3783ZM3.10659 10.1031C3.78395 8.93399 4.83762 8.06658 6.07944 7.5763V14.8173C6.07944 15.1567 6.26759 15.4962 6.56864 15.6847L13.9819 19.9841L11.423 21.4549C11.3854 21.4549 11.3478 21.4926 11.3478 21.4549L5.21393 17.9098C2.42924 16.3259 1.52609 12.8185 3.10659 10.1031ZM24.1799 15.0059L16.7666 10.7065L19.3255 9.2357C19.3632 9.2357 19.4008 9.19799 19.4008 9.2357L25.5346 12.7808C28.2817 14.3648 29.1848 17.8721 27.6043 20.5875C26.927 21.7566 25.8733 22.624 24.6315 23.0766V15.8733C24.6691 15.5339 24.481 15.1945 24.1799 15.0059ZM26.7012 11.1591C26.6636 11.1214 26.5883 11.0837 26.513 11.046L20.4545 7.53859C20.1534 7.35002 19.7771 7.35002 19.476 7.53859L12.0628 11.8379V8.85857C12.0628 8.82085 12.0628 8.78314 12.1004 8.78314L18.2342 5.23806C20.9813 3.65408 24.4433 4.59692 26.0238 7.35002C26.7012 8.48143 26.927 9.83912 26.7012 11.1591ZM10.6704 16.439L8.11151 14.9682C8.07388 14.9682 8.07388 14.9305 8.07388 14.8927V7.80258C8.07388 4.63464 10.6328 2.07011 13.7938 2.07011C15.1485 2.07011 16.4279 2.52268 17.444 3.39009C17.4063 3.4278 17.3311 3.46552 17.2558 3.50323L11.1972 7.0106C10.8962 7.19917 10.708 7.50087 10.708 7.87801V16.439H10.6704ZM12.0628 13.4219L15.3743 11.4985L18.6858 13.4219V17.231L15.3743 19.1544L12.0628 17.231V13.4219Z" fill="black"/>
</g>
<defs>
<clipPath id="clip0_220_2348">
<rect width="123.843" height="30.548" fill="white" transform="translate(0.322266 0.0712891)"/>
</clipPath>
</defs>
</svg>
