<svg width="142" height="19" viewBox="0 0 142 19" fill="none" xmlns="http://www.w3.org/2000/svg">
<path d="M61.3675 12.1118H70.6837L65.7498 4.14293L56.6788 18.5175H52.5723L63.6046 1.26189C64.4321 0.0665595 66.0869 -0.209285 67.2514 0.618249C67.4966 0.802146 67.7111 0.986042 67.895 1.23124L78.958 18.5175H74.8515L72.9208 15.2993H63.4821L61.3675 12.1118ZM104.21 15.33V0.342404H100.716V16.8011C100.716 17.2609 100.9 17.7206 101.237 18.0271C101.574 18.3643 102.034 18.5482 102.524 18.5482H118.429L120.513 15.33H104.21ZM46.3207 12.6328C49.7223 12.6328 52.4804 9.87437 52.4804 6.47229C52.4804 3.0702 49.7223 0.311755 46.3207 0.311755H31.0286V18.5175H34.4916V3.56059H46.0755C47.6997 3.56059 49.0175 4.87852 49.0175 6.50294C49.0175 8.12736 47.6997 9.44528 46.0755 9.44528H36.2077L46.6578 18.5175H51.7449L44.7271 12.6328H46.3207ZM9.51562 18.5175H20.0883C25.1141 18.3949 29.0673 14.1959 28.9448 9.20009C28.8222 4.35748 24.8996 0.465002 20.0883 0.342404H9.51562C4.48978 0.219807 0.291372 4.17358 0.168791 9.20009C0.0462096 14.2266 3.99946 18.3949 9.02529 18.5175C9.17852 18.5482 9.33175 18.5482 9.51562 18.5175ZM19.8431 15.33H9.73014C6.48173 15.238 3.93817 12.5102 4.0301 9.26138C4.12204 6.16579 6.63496 3.65254 9.73014 3.56059H19.8431C23.0915 3.46865 25.8189 6.01255 25.9109 9.26138C26.0028 12.5102 23.4592 15.238 20.2108 15.33C20.0883 15.33 19.9657 15.33 19.8431 15.33ZM86.2515 18.5175H97.0387L99.0919 15.33H86.4967C83.2483 15.4219 80.5209 12.878 80.4289 9.62918C80.337 6.38034 82.8806 3.65254 86.129 3.56059C86.2515 3.56059 86.3741 3.56059 86.4967 3.56059H96.7629L98.8468 0.342404H86.2822C81.2563 0.219807 77.0886 4.17358 76.966 9.20009C76.8434 14.2266 80.7967 18.3949 85.8225 18.5175C85.9451 18.5482 86.0983 18.5482 86.2515 18.5175ZM129.032 15.33C126.397 15.33 124.068 13.583 123.363 11.0391H138.318L140.371 7.82086H123.363C124.068 5.27696 126.397 3.52994 129.032 3.52994H139.299L141.352 0.311755H128.787C123.761 0.465002 119.808 4.63332 119.931 9.65983C120.053 14.5024 123.945 18.3949 128.787 18.5175H139.574L141.628 15.33H129.032Z" fill="#C74634"/>
</svg>
