<svg width="99" height="41" viewBox="0 0 99 41" fill="none" xmlns="http://www.w3.org/2000/svg">
<g clip-path="url(#clip0_220_2307)">
<mask id="mask0_220_2307" style="mask-type:luminance" maskUnits="userSpaceOnUse" x="0" y="0" width="99" height="41">
<path d="M98.9003 0.507324H0.291016V40.1832H98.9003V0.507324Z" fill="white"/>
</mask>
<g mask="url(#mask0_220_2307)">
<path d="M28.8114 18.7238C32.6075 9.81511 41.4423 3.56907 51.7363 3.56907C62.0275 3.56907 70.8655 9.81511 74.6582 18.7267H74.6617C74.8809 19.331 75.4593 19.7615 76.1374 19.7615C77.004 19.7615 77.7053 19.0573 77.7053 18.1935C77.7053 17.9826 77.6711 17.7859 77.5967 17.6006C73.3075 7.54873 63.3413 0.507324 51.7335 0.507324C40.1257 0.507324 30.1622 7.54593 25.8788 17.5892C25.7989 17.7717 25.7676 17.9797 25.7676 18.1908C25.7676 19.0573 26.4687 19.7587 27.3351 19.7587C28.0133 19.7587 28.5748 19.3339 28.8114 18.7238Z" fill="#F38B00"/>
<path d="M14.6871 34.9477C14.6016 35.2128 14.4021 35.381 14.0288 35.381H11.9369C11.595 35.381 11.4211 35.2841 11.3356 34.9477L9.36054 27.5613C9.16107 26.8144 9.07557 25.945 8.95873 25.0754C8.87323 25.945 8.75919 26.8372 8.55971 27.5613L6.58471 34.9477C6.52771 35.2128 6.29971 35.381 5.92637 35.381H3.80601C3.46401 35.381 3.29017 35.2841 3.20467 34.9477L0.309121 24.3257C0.223623 23.9636 0.451619 23.7441 0.767963 23.7441H2.11314C2.48363 23.7441 2.68598 23.8667 2.77148 24.2288L4.60684 31.809C4.80349 32.6785 4.86334 33.5708 4.94884 34.3918C5.09134 33.5936 5.20533 32.6556 5.43618 31.8347L7.47105 24.206C7.55655 23.8924 7.81591 23.7469 8.1607 23.7469H9.81937C10.1614 23.7469 10.4493 23.918 10.5348 24.2316L12.5981 31.8375C12.8289 32.6585 12.943 33.5765 13.057 34.3946C13.1709 33.5965 13.2878 32.6585 13.4588 31.8375L15.1488 24.2088C15.2058 23.8952 15.4908 23.7498 15.8356 23.7498H17.0953C17.4117 23.7498 17.6397 23.9437 17.5542 24.3057L14.6871 34.9477Z" fill="#005CB9"/>
<path d="M25.8925 35.4922C22.5723 35.4922 20.3921 33.2087 20.3921 29.4884C20.3921 25.7938 22.5695 23.5474 25.8925 23.5474C29.2184 23.5474 31.3359 25.7938 31.3359 29.4884C31.3331 33.2058 29.2156 35.4922 25.8925 35.4922ZM25.8355 25.1666C23.8605 25.1666 22.7718 26.5892 22.7718 29.4884C22.7718 32.4589 23.8605 33.8957 25.8355 33.8957C27.8105 33.8957 28.8992 32.4589 28.8992 29.4884C28.8992 26.5892 27.8134 25.1666 25.8355 25.1666Z" fill="#005CB9"/>
<path d="M42.0266 25.3861C41.9411 25.7254 41.6846 25.9392 41.1944 25.8195C40.7926 25.7254 40.1371 25.5543 39.5928 25.5543C38.7606 25.5543 37.6434 26.5008 37.6434 28.599V34.902C37.6434 35.1672 37.3584 35.3838 37.0421 35.3838H35.9534C35.6399 35.3838 35.3521 35.1672 35.3521 34.902V24.2288C35.3521 23.9408 35.6399 23.7441 35.9534 23.7441H36.6146C36.9024 23.7441 37.1304 23.8667 37.2159 24.109L37.6177 25.4118C38.4214 24.2772 39.5073 23.5474 40.8268 23.5474C41.7416 23.5474 42.4598 23.9123 42.3145 24.3941L42.0266 25.3861Z" fill="#005CB9"/>
<path d="M68.1944 35.2813H67.5931C67.1627 35.2813 66.9347 35.1359 66.8492 34.7966L66.6184 33.8302C65.789 35.0105 64.7574 35.4723 63.2697 35.4723C60.32 35.4723 58.7725 33.4568 58.7725 29.5484C58.7725 27.1565 59.1743 25.9735 60.149 24.8645C60.8928 24.0179 62.1269 23.5589 63.3552 23.5589C64.7602 23.5589 65.8176 24.1376 66.5642 25.2722V18.7068C66.5642 18.416 66.8521 18.2222 67.1656 18.2222H68.1972C68.5136 18.2222 68.7986 18.416 68.7986 18.7068V34.7966C68.7959 35.0646 68.5079 35.2813 68.1944 35.2813ZM63.8397 25.1525C62.979 25.1525 62.3207 25.4661 61.9217 26.0932C61.5198 26.7233 61.2035 27.7609 61.2035 29.5227C61.2035 32.613 62.0072 33.8787 63.8112 33.8787C65.6722 33.8787 66.6155 32.4704 66.6155 29.5712C66.6155 26.6947 65.5839 25.1525 63.8397 25.1525Z" fill="#005CB9"/>
<path d="M55.1737 35.3897H53.4266C53.1388 35.3897 52.9108 35.2215 52.7398 34.9792L48.328 29.3774V34.9079C48.328 35.173 48.0402 35.3925 47.7239 35.3925H46.6922C46.3787 35.3925 46.0908 35.173 46.0908 34.9079V18.7782C46.0908 18.4903 46.3759 18.2964 46.6922 18.2964H47.7239C48.0402 18.2964 48.328 18.4903 48.328 18.7782V29.1579L52.8737 24.1148C53.0162 23.9209 53.2442 23.7528 53.6176 23.7528H55.1623C55.5641 23.7528 55.7066 24.092 55.4786 24.3315L50.6479 29.1835L55.4871 34.8081C55.6894 35.0504 55.5755 35.3897 55.1737 35.3897Z" fill="#005CB9"/>
<path d="M85.6597 24.229C85.5395 23.9667 85.842 23.7529 86.1753 23.7529H87.5233C87.8825 23.7529 88.1557 23.9211 88.2786 24.229L90.9432 31.2619C91.0655 31.5954 91.1856 32.0942 91.2451 32.4762C91.3366 32.1199 91.5162 31.4272 91.7272 30.8314L93.8701 24.2033C93.9616 23.8926 94.2347 23.75 94.5967 23.75H95.8962C96.2267 23.75 96.5006 23.9638 96.4091 24.2261L91.9662 36.9976C91.5134 38.3061 90.6352 39.3324 89.1247 39.9054L88.4896 40.142C88.2185 40.2389 87.8566 40.1648 87.7029 39.9311L87.2809 39.264C87.1586 39.0729 87.3096 38.6938 87.5834 38.594L88.0334 38.4258C89.165 38.0154 89.994 36.781 90.3532 35.2044L85.6597 24.229Z" fill="#005CB9"/>
<path d="M77.9899 23.5562C74.6642 23.5562 72.7173 25.8083 72.7173 29.5058C72.7173 33.2317 74.7127 35.461 77.8219 35.461H77.8246C79.1583 35.461 80.0222 34.9992 80.8512 33.8133L81.0765 34.8111C81.1619 35.1503 81.3927 35.2956 81.8229 35.2956H82.4246C82.7407 35.2956 83.0289 35.079 83.0289 34.8111L83.0344 29.4772V29.4743C83.0371 25.774 81.3217 23.5562 77.9899 23.5562ZM77.9359 33.8588C75.9549 33.8588 75.1026 32.4791 75.1026 29.5058C75.1026 26.6036 75.9576 25.1782 77.9359 25.1782C79.9136 25.1782 80.8485 26.6036 80.8485 29.5058C80.8457 32.4791 79.9136 33.8588 77.9359 33.8588Z" fill="#005CB9"/>
<path d="M97.9456 32.2993C98.1368 32.3792 98.3076 32.4961 98.4557 32.6471C98.5985 32.7925 98.7091 32.9607 98.7835 33.1461C98.8607 33.3371 98.9003 33.5337 98.9003 33.7447C98.9003 33.9586 98.8607 34.1552 98.7808 34.3462C98.7036 34.5401 98.5896 34.7026 98.4414 34.8479C98.2905 34.9933 98.1191 35.1074 97.9313 35.1872C97.7435 35.2642 97.5434 35.3041 97.3385 35.3041C97.1303 35.3041 96.9308 35.2613 96.7403 35.1843C96.5518 35.1017 96.3784 34.9819 96.2302 34.8309C96.0848 34.6855 95.9762 34.5173 95.899 34.332C95.8198 34.141 95.7822 33.9499 95.7822 33.7419C95.7822 33.5994 95.8055 33.4625 95.8396 33.3228C95.8792 33.1888 95.9338 33.0577 96.0103 32.9266C96.153 32.6899 96.3381 32.5046 96.5689 32.3735C96.8025 32.2395 97.0592 32.1768 97.3385 32.1768C97.5495 32.1768 97.7544 32.2167 97.9456 32.2993ZM96.8455 32.5303C96.6884 32.5902 96.5546 32.6842 96.4323 32.8039C96.3012 32.9294 96.2097 33.0748 96.1387 33.2373C96.0704 33.3969 96.0363 33.5651 96.0363 33.7361C96.0363 33.9072 96.0677 34.0754 96.1298 34.2293C96.1954 34.3833 96.2896 34.5258 96.4091 34.6455C96.5348 34.771 96.6775 34.8708 96.8339 34.9392C96.9937 35.0076 97.1589 35.0418 97.3331 35.0418C97.5011 35.0418 97.6636 35.0076 97.8227 34.9449C97.9825 34.8793 98.128 34.7853 98.2563 34.6627C98.3758 34.5458 98.4701 34.4089 98.5384 34.2493C98.6039 34.0953 98.6381 33.93 98.6381 33.7618C98.6381 33.5765 98.6067 33.4055 98.5438 33.2458C98.4844 33.089 98.3875 32.9465 98.2679 32.8239C98.1396 32.6956 97.9996 32.5958 97.8432 32.5303C97.6861 32.4647 97.5154 32.4305 97.3358 32.4305C97.1617 32.4334 96.9964 32.4675 96.8455 32.5303ZM97.3699 32.8439C97.6124 32.8439 97.8002 32.8866 97.9231 32.9693C98.0481 33.0548 98.1082 33.1745 98.1082 33.3456C98.1082 33.4625 98.074 33.5565 98.0084 33.6364C97.9402 33.7191 97.8459 33.7761 97.7291 33.8046L98.1163 34.58H97.6465L97.316 33.8701H97.1105V34.58H96.6884V32.8467H97.3699V32.8439ZM97.1132 33.6136H97.3187C97.4437 33.6136 97.5325 33.5907 97.5892 33.5537C97.6465 33.5138 97.6745 33.4568 97.6745 33.3684C97.6745 33.2829 97.6438 33.2173 97.5837 33.1745C97.5181 33.1318 97.4239 33.109 97.2955 33.109H97.1105V33.6136H97.1132Z" fill="#005CB9"/>
</g>
</g>
<defs>
<clipPath id="clip0_220_2307">
<rect width="98.6093" height="39.6759" fill="white" transform="translate(0.291016 0.507324)"/>
</clipPath>
</defs>
</svg>
